# xmcd
#
# Track frame offsets:
#	150
#	6932
#	15519
#	23706
#	33921
#	42872
#	54966
#	63122
#	72002
#	81020
#	89708
#
# Disc length: 1255 seconds
#
# Revision: 0
# Processed by: cddbd v1.5.1PL0 Copyright (c) Steve Scherf et al.
# Submitted via: dBpowerAMP V4.0
#
DISCID=7904e50b
DTITLE=Soybonilla - CD DEMO
DYEAR=2004
DGENRE=Pop-Folk
TTITLE0=A espera
TTITLE1=a dança
TTITLE2=the heart song
TTITLE3=laurita
TTITLE4=o caldo
TTITLE5=Igual Demais
TTITLE6=certeza
TTITLE7=inútil ilusão
TTITLE8=ocupada
TTITLE9=o que eu não entendo
TTITLE10=una tarde en el parque
EXTD=
EXTT0=
EXTT1=
EXTT2=
EXTT3=
EXTT4=
EXTT5=
EXTT6=
EXTT7=
EXTT8=
EXTT9=
EXTT10=
PLAYORDER=
